<svg xmlns="http://www.w3.org/2000/svg" xmlns:xlink="http://www.w3.org/1999/xlink" width="500" zoomAndPan="magnify"
    viewBox="0 0 375 374.999991" height="500" preserveAspectRatio="xMidYMid meet" version="1.0">
    <defs>
        <g />
        <clipPath id="98307ab02e">
            <path
                d="M 17.25 0 L 357.75 0 C 362.324219 0 366.710938 1.816406 369.949219 5.050781 C 373.183594 8.289062 375 12.675781 375 17.25 L 375 357.75 C 375 362.324219 373.183594 366.710938 369.949219 369.949219 C 366.710938 373.183594 362.324219 375 357.75 375 L 17.25 375 C 12.675781 375 8.289062 373.183594 5.050781 369.949219 C 1.816406 366.710938 0 362.324219 0 357.75 L 0 17.25 C 0 12.675781 1.816406 8.289062 5.050781 5.050781 C 8.289062 1.816406 12.675781 0 17.25 0 Z M 17.25 0 "
                clip-rule="nonzero" />
        </clipPath>
    </defs>
    <g clip-path="url(#98307ab02e)">
        <rect x="-37.5" width="450" y="-37.499999" height="449.999989" fill="white" style="filter: invert(100%);" fill-opacity="1" />
    </g>
    <g fill="white" fill-opacity="1">
        <g transform="translate(84.108568, 302.248811)">
            <g>
                <path
                    d="M 180.921875 -238.8125 L 180.921875 -197.46875 L 131.640625 -197.46875 L 131.640625 -41.53125 L 180.921875 -41.53125 L 180.921875 0 L 25.84375 0 L 25.84375 -41.53125 L 75.125 -41.53125 L 75.125 -197.46875 L 25.84375 -197.46875 L 25.84375 -238.8125 Z M 180.921875 -238.8125 " />
            </g>
        </g>
    </g>
</svg>